<svg width="355" height="622" viewBox="0 0 355 622" fill="none" xmlns="http://www.w3.org/2000/svg">
<path d="M17.5 99.4408L21.7577 110.947L21.8375 111.163L22.0531 111.242L33.5592 115.5L22.0531 119.758L21.8375 119.837L21.7577 120.053L17.5 131.559L13.2423 120.053L13.1626 119.837L12.9469 119.758L1.44077 115.5L12.9469 111.242L13.1626 111.163L13.2423 110.947L17.5 99.4408Z" fill="#BCEC30" stroke="#202027"/>
<path d="M64.5 66.4408L66.867 72.8376L66.9468 73.0532L67.1624 73.133L73.5592 75.5L67.1624 77.867L66.9468 77.9468L66.867 78.1624L64.5 84.5592L62.133 78.1624L62.0532 77.9468L61.8376 77.867L55.4408 75.5L61.8376 73.133L62.0532 73.0532L62.133 72.8376L64.5 66.4408Z" stroke="#202027"/>
<path d="M244 559.441L245.962 564.743L246.042 564.958L246.257 565.038L251.559 567L246.257 568.962L246.042 569.042L245.962 569.257L244 574.559L242.038 569.257L241.958 569.042L241.743 568.962L236.441 567L241.743 565.038L241.958 564.958L242.038 564.743L244 559.441Z" fill="#BCEC30" stroke="#202027"/>
<path d="M285.5 582.506L290.295 596.129L290.371 596.346L290.585 596.429L303.621 601.5L290.585 606.571L290.371 606.654L290.295 606.871L285.5 620.494L280.705 606.871L280.629 606.654L280.415 606.571L267.379 601.5L280.415 596.429L280.629 596.346L280.705 596.129L285.5 582.506Z" stroke="#202027"/>
<path d="M343.5 1.16222C343.5 2.66222 345 0.999972 345 0.999972L354 1.16221L354 102.55L317.485 80.1878L309.858 158.046L288.761 76.0538L218.442 115.054L266.882 57.8092L180.917 53.9446L261.719 30.0424L232.5 0.999969L293.295 0.99997L286.09 1.00001L300.5 1.00001L314.083 1.16222L343.5 1.16222Z" fill="#BCEC30" stroke="#202027" stroke-miterlimit="10" stroke-linecap="round"/>
</svg>
